<svg width="25" height="25" viewBox="0 0 25 25" fill="none" xmlns="http://www.w3.org/2000/svg">
<path d="M23.953 1.54624C23.6929 1.28797 23.3666 1.1064 23.01 1.0215C22.6534 0.936601 22.2803 0.951647 21.9318 1.06499L1.81551 7.77499C1.44243 7.8932 1.11275 8.11933 0.868113 8.4248C0.623475 8.73028 0.474851 9.1014 0.441011 9.49129C0.407171 9.88118 0.489634 10.2724 0.677984 10.6154C0.866334 10.9585 1.15212 11.238 1.49926 11.4187L9.8455 15.5437L13.9705 23.9175C14.1363 24.2453 14.39 24.5204 14.7033 24.7123C15.0165 24.9041 15.3769 25.005 15.7443 25.0037H15.8818C16.2751 24.9748 16.6507 24.8282 16.9597 24.5829C17.2686 24.3377 17.4967 24.0053 17.6143 23.6287L24.4205 3.56749C24.542 3.22089 24.5626 2.84691 24.4799 2.48907C24.3971 2.13123 24.2144 1.80427 23.953 1.54624ZM2.66801 9.67249L20.2268 3.81499L10.478 13.5637L2.66801 9.67249ZM15.8405 22.8312L11.9355 15.0212L21.6843 5.27249L15.8405 22.8312Z" fill="#FBFBFF"/>
</svg>
