<svg width="25" height="24" viewBox="0 0 25 24" fill="none" xmlns="http://www.w3.org/2000/svg">
<path d="M20.8301 3.67008C20.641 3.48225 20.4037 3.3502 20.1443 3.28845C19.885 3.22671 19.6136 3.23765 19.3601 3.32008L4.73012 8.20008C4.4588 8.28606 4.21903 8.45051 4.04111 8.67267C3.86319 8.89484 3.7551 9.16474 3.73049 9.4483C3.70588 9.73186 3.76585 10.0164 3.90284 10.2658C4.03982 10.5153 4.24766 10.7186 4.50012 10.8501L10.5701 13.8501L13.5701 19.9401C13.6907 20.1785 13.8752 20.3786 14.103 20.5181C14.3309 20.6576 14.593 20.731 14.8601 20.7301H14.9601C15.2462 20.709 15.5194 20.6024 15.7441 20.424C15.9688 20.2457 16.1346 20.0039 16.2201 19.7301L21.1701 5.14008C21.2585 4.88801 21.2735 4.61602 21.2133 4.35578C21.1531 4.09553 21.0202 3.85774 20.8301 3.67008ZM5.35012 9.58008L18.1201 5.32008L11.0301 12.4101L5.35012 9.58008ZM14.9301 19.1501L12.0901 13.4701L19.1801 6.38008L14.9301 19.1501Z" fill="#252525"/>
</svg>
