<svg width="33" height="33" viewBox="0 0 33 33" fill="none" xmlns="http://www.w3.org/2000/svg">
<path d="M20.9275 8.29125L24.4062 5.62375L20.02 5.5L18.5625 1.375L17.105 5.5L12.7188 5.62375L16.1975 8.29125L14.9462 12.4988L18.5625 10.01L22.1787 12.4988L20.9275 8.29125Z" fill="#252525"/>
<path d="M26.9638 16.8438L29.2188 15.125L26.3863 15.0562L25.4375 12.375L24.4887 15.0562L21.6562 15.125L23.9112 16.8438L23.1 19.5662L25.4375 17.9575L27.775 19.5662L26.9638 16.8438Z" fill="#252525"/>
<path d="M9.625 8.25001C9.625 16.61 16.39 23.375 24.75 23.375C25.4788 23.375 26.1937 23.32 26.895 23.2238C24.6812 26.62 20.8587 28.875 16.5 28.875C9.66625 28.875 4.125 23.3338 4.125 16.5C4.125 12.1413 6.38 8.31876 9.77625 6.10501C9.68 6.80626 9.625 7.52126 9.625 8.25001Z" fill="#252525" stroke="#252525" stroke-width="2" stroke-linecap="round" stroke-linejoin="round"/>
</svg>
