<svg width="33" height="33" viewBox="0 0 33 33" fill="none" xmlns="http://www.w3.org/2000/svg">
<path d="M16.5004 26.125C16.8372 26.125 17.1623 26.2487 17.4139 26.4725C17.6656 26.6963 17.8264 27.0047 17.8658 27.3391L17.8754 27.5V28.875C17.875 29.2255 17.7408 29.5625 17.5003 29.8174C17.2597 30.0722 16.9309 30.2256 16.581 30.2461C16.2312 30.2666 15.8867 30.1528 15.6179 29.9279C15.3492 29.7029 15.1764 29.3839 15.1351 29.0359L15.1254 28.875V27.5C15.1254 27.1353 15.2703 26.7856 15.5282 26.5277C15.786 26.2699 16.1358 26.125 16.5004 26.125ZM25.1808 23.2512L25.3101 23.3654L26.2726 24.3279C26.5192 24.5753 26.6623 24.9073 26.673 25.2565C26.6837 25.6057 26.561 25.9459 26.33 26.2079C26.0989 26.4699 25.7768 26.6342 25.429 26.6673C25.0813 26.7004 24.7339 26.5999 24.4576 26.3863L24.3283 26.2721L23.3658 25.3096C23.1285 25.0728 22.986 24.7574 22.9649 24.4228C22.9439 24.0881 23.0459 23.7574 23.2516 23.4927C23.4574 23.228 23.7527 23.0476 24.0822 22.9854C24.4116 22.9232 24.7525 22.9835 25.0406 23.155L25.1808 23.2512ZM9.63506 23.3654C9.8718 23.6021 10.014 23.9172 10.035 24.2513C10.056 24.5855 9.9544 24.9158 9.74918 25.1804L9.63506 25.3096L8.67256 26.2721C8.42511 26.5187 8.09308 26.6619 7.7439 26.6726C7.39472 26.6832 7.05457 26.5606 6.79255 26.3295C6.53052 26.0985 6.36626 25.7764 6.33313 25.4286C6.3 25.0808 6.40049 24.7335 6.61418 24.4571L6.7283 24.3279L7.6908 23.3654C7.94866 23.1076 8.29833 22.9628 8.66293 22.9628C9.02753 22.9628 9.3772 23.1076 9.63506 23.3654ZM5.50043 15.125C5.85089 15.1254 6.18797 15.2596 6.44281 15.5002C6.69765 15.7407 6.851 16.0696 6.87154 16.4194C6.89208 16.7693 6.77825 17.1138 6.55332 17.3825C6.32838 17.6513 6.00931 17.824 5.6613 17.8654L5.50043 17.875H4.12543C3.77497 17.8746 3.43789 17.7404 3.18305 17.4998C2.92821 17.2593 2.77486 16.9304 2.75432 16.5806C2.73378 16.2307 2.84761 15.8862 3.07254 15.6175C3.29748 15.3487 3.61655 15.176 3.96455 15.1346L4.12543 15.125H5.50043ZM28.8754 15.125C29.2259 15.1254 29.563 15.2596 29.8178 15.5002C30.0726 15.7407 30.226 16.0696 30.2465 16.4194C30.2671 16.7693 30.1533 17.1138 29.9283 17.3825C29.7034 17.6513 29.3843 17.824 29.0363 17.8654L28.8754 17.875H27.5004C27.15 17.8746 26.8129 17.7404 26.558 17.4998C26.3032 17.2593 26.1499 16.9304 26.1293 16.5806C26.1088 16.2307 26.2226 15.8862 26.4475 15.6175C26.6725 15.3487 26.9915 15.176 27.3396 15.1346L27.5004 15.125H28.8754ZM8.5433 6.61375L8.67256 6.72788L9.63506 7.69037C9.88166 7.93782 10.0248 8.26985 10.0355 8.61903C10.0462 8.96821 9.92351 9.30836 9.69246 9.57038C9.46142 9.83241 9.1393 9.99667 8.79153 10.0298C8.44376 10.0629 8.09642 9.96244 7.82005 9.74875L7.6908 9.63462L6.7283 8.67213C6.49193 8.43518 6.35009 8.12016 6.32937 7.78612C6.30866 7.45207 6.41049 7.12194 6.61578 6.85761C6.82107 6.59328 7.11572 6.4129 7.4445 6.35029C7.77328 6.28768 8.1136 6.34713 8.40168 6.5175L8.5433 6.61375ZM26.2726 6.72788C26.5093 6.96464 26.6515 7.27965 26.6725 7.61381C26.6935 7.94797 26.5919 8.27832 26.3867 8.54287L26.2726 8.67213L25.3101 9.63462C25.0626 9.88123 24.7306 10.0244 24.3814 10.0351C24.0322 10.0457 23.6921 9.92308 23.43 9.69203C23.168 9.46099 23.0038 9.13887 22.9706 8.7911C22.9375 8.44333 23.038 8.09599 23.2517 7.81962L23.3658 7.69037L24.3283 6.72788C24.5862 6.4701 24.9358 6.32529 25.3004 6.32529C25.665 6.32529 26.0147 6.4701 26.2726 6.72788ZM16.5004 2.75C16.8372 2.75004 17.1623 2.87369 17.4139 3.09748C17.6656 3.32128 17.8264 3.62965 17.8658 3.96412L17.8754 4.125V5.5C17.875 5.85046 17.7408 6.18754 17.5003 6.44238C17.2597 6.69722 16.9309 6.85057 16.581 6.87111C16.2312 6.89165 15.8867 6.77782 15.6179 6.55289C15.3492 6.32795 15.1764 6.00888 15.1351 5.66088L15.1254 5.5V4.125C15.1254 3.76033 15.2703 3.41059 15.5282 3.15273C15.786 2.89487 16.1358 2.75 16.5004 2.75ZM16.5004 9.625C17.8475 9.62492 19.1649 10.0206 20.289 10.7628C21.4131 11.505 22.2944 12.5612 22.8235 13.8C23.3525 15.0388 23.5059 16.4058 23.2647 17.7311C23.0235 19.0563 22.3983 20.2816 21.4667 21.2546C20.5351 22.2275 19.3382 22.9054 18.0247 23.204C16.7111 23.5026 15.3388 23.4087 14.0781 22.934C12.8175 22.4593 11.7241 21.6247 10.9337 20.5339C10.1433 19.4431 9.69077 18.1442 9.63231 16.7984L9.62543 16.5L9.63231 16.2016C9.70919 14.4317 10.4664 12.7597 11.746 11.5344C13.0256 10.3091 14.7288 9.6251 16.5004 9.625Z" fill="#DADADA"/>
</svg>
