<svg width="33" height="34" viewBox="0 0 33 34" fill="none" xmlns="http://www.w3.org/2000/svg">
<path fill-rule="evenodd" clip-rule="evenodd" d="M23.375 10.125C23.375 9.03098 22.9404 7.98177 22.1668 7.20818C21.3932 6.4346 20.344 6 19.25 6H13.75C12.656 6 11.6068 6.4346 10.8332 7.20818C10.0596 7.98177 9.625 9.03098 9.625 10.125H8.25C7.15598 10.125 6.10677 10.5596 5.33318 11.3332C4.5596 12.1068 4.125 13.156 4.125 14.25V25.25C4.125 26.344 4.5596 27.3932 5.33318 28.1668C6.10677 28.9404 7.15598 29.375 8.25 29.375H24.75C25.844 29.375 26.8932 28.9404 27.6668 28.1668C28.4404 27.3932 28.875 26.344 28.875 25.25V14.25C28.875 13.156 28.4404 12.1068 27.6668 11.3332C26.8932 10.5596 25.844 10.125 24.75 10.125H23.375ZM19.25 8.75H13.75C13.3853 8.75 13.0356 8.89487 12.7777 9.15273C12.5199 9.41059 12.375 9.76033 12.375 10.125H20.625C20.625 9.76033 20.4801 9.41059 20.2223 9.15273C19.9644 8.89487 19.6147 8.75 19.25 8.75ZM8.25 12.875H24.75C25.1147 12.875 25.4644 13.0199 25.7223 13.2777C25.9801 13.5356 26.125 13.8853 26.125 14.25V25.25C26.125 25.6147 25.9801 25.9644 25.7223 26.2223C25.4644 26.4801 25.1147 26.625 24.75 26.625H8.25C7.88533 26.625 7.53559 26.4801 7.27773 26.2223C7.01987 25.9644 6.875 25.6147 6.875 25.25V14.25C6.875 13.8853 7.01987 13.5356 7.27773 13.2777C7.53559 13.0199 7.88533 12.875 8.25 12.875Z" fill="#252525"/>
</svg>
