<svg width="50" height="50" viewBox="0 0 50 50" fill="none" xmlns="http://www.w3.org/2000/svg">
<path d="M33.8852 40.8406L19.4758 26.2C19.1598 25.8806 18.9826 25.4494 18.9826 25C18.9826 24.5507 19.1598 24.1195 19.4758 23.8L33.8821 9.15939C34.198 8.83797 34.3749 8.40535 34.3749 7.95471C34.3749 7.50406 34.198 7.07144 33.8821 6.75002C33.7278 6.59174 33.5434 6.46595 33.3397 6.38007C33.136 6.29418 32.9172 6.24993 32.6962 6.24993C32.4751 6.24993 32.2563 6.29418 32.0526 6.38007C31.8489 6.46595 31.6645 6.59174 31.5102 6.75002L17.104 21.3875C16.1573 22.3516 15.627 23.6488 15.627 25C15.627 26.3512 16.1573 27.6484 17.104 28.6125L31.5102 43.25C31.6646 43.4088 31.8492 43.535 32.0532 43.6211C32.2571 43.7073 32.4763 43.7517 32.6977 43.7517C32.9191 43.7517 33.1383 43.7073 33.3423 43.6211C33.5462 43.535 33.7309 43.4088 33.8852 43.25C34.2011 42.9286 34.3781 42.496 34.3781 42.0453C34.3781 41.5947 34.2011 41.1621 33.8852 40.8406Z" fill="#7B68E6"/>
</svg>
