<svg width="50" height="50" viewBox="0 0 50 50" fill="none" xmlns="http://www.w3.org/2000/svg">
<path d="M16.1148 9.15936L30.5242 23.8C30.8402 24.1194 31.0174 24.5506 31.0174 25C31.0174 25.4493 30.8402 25.8805 30.5242 26.2L16.1179 40.8406C15.802 41.162 15.6251 41.5947 15.6251 42.0453C15.6251 42.4959 15.802 42.9286 16.1179 43.25C16.2722 43.4083 16.4566 43.534 16.6603 43.6199C16.864 43.7058 17.0828 43.7501 17.3038 43.7501C17.5249 43.7501 17.7437 43.7058 17.9474 43.6199C18.1511 43.534 18.3355 43.4083 18.4898 43.25L32.896 28.6125C33.8427 27.6483 34.373 26.3512 34.373 25C34.373 23.6488 33.8427 22.3516 32.896 21.3875L18.4898 6.74998C18.3354 6.59123 18.1508 6.46503 17.9468 6.37886C17.7429 6.29269 17.5237 6.24829 17.3023 6.24829C17.0809 6.24829 16.8617 6.29269 16.6577 6.37886C16.4538 6.46503 16.2691 6.59123 16.1148 6.74998C15.7989 7.0714 15.6219 7.50402 15.6219 7.95467C15.6219 8.40531 15.7989 8.83793 16.1148 9.15936Z" fill="#7B68E6"/>
</svg>
