<svg width="33" height="33" viewBox="0 0 33 33" fill="none" xmlns="http://www.w3.org/2000/svg">
<g clip-path="url(#clip0_79_219)">
<path d="M10.6454 2.2529C18.0066 11.1431 21.8566 19.6813 23.1942 30.3733M1.17221 15.0041C14.3392 14.7005 21.8566 12.6215 27.5062 5.7289M5.93961 27.7069C13.0258 16.9225 21.7158 15.2769 31.8006 18.2623M31.8996 16.5001C31.8996 14.4777 31.5013 12.4752 30.7274 10.6068C29.9534 8.73836 28.8191 7.04068 27.3891 5.61065C25.959 4.18063 24.2613 3.04628 22.3929 2.27235C20.5245 1.49843 18.522 1.1001 16.4996 1.1001C14.4773 1.1001 12.4747 1.49843 10.6063 2.27235C8.73787 3.04628 7.04019 4.18063 5.61016 5.61065C4.18014 7.04068 3.04579 8.73836 2.27186 10.6068C1.49794 12.4752 1.09961 14.4777 1.09961 16.5001C1.09961 20.5844 2.72211 24.5015 5.61017 27.3895C8.49823 30.2776 12.4153 31.9001 16.4996 31.9001C20.5839 31.9001 24.501 30.2776 27.3891 27.3895C30.2771 24.5015 31.8996 20.5844 31.8996 16.5001Z" stroke="#DADADA" stroke-width="2" stroke-linecap="round" stroke-linejoin="round"/>
</g>
<defs>
<clipPath id="clip0_79_219">
<rect width="33" height="33" fill="white"/>
</clipPath>
</defs>
</svg>
