<svg width="33" height="33" viewBox="0 0 33 33" fill="none" xmlns="http://www.w3.org/2000/svg">
<g clip-path="url(#clip0_79_217)">
<path d="M9.89961 13.2001V24.2001M23.0996 24.2001V18.7001C23.0996 17.5331 22.636 16.414 21.8109 15.5888C20.9857 14.7637 19.8666 14.3001 18.6996 14.3001C17.5327 14.3001 16.4135 14.7637 15.5883 15.5888C14.7632 16.414 14.2996 17.5331 14.2996 18.7001V24.2001V13.2001M8.79961 9.9001H10.9996M3.29961 1.1001H29.6996C30.2831 1.1001 30.8427 1.33188 31.2552 1.74446C31.6678 2.15704 31.8996 2.71662 31.8996 3.3001V29.7001C31.8996 30.2836 31.6678 30.8432 31.2552 31.2557C30.8427 31.6683 30.2831 31.9001 29.6996 31.9001H3.29961C2.71613 31.9001 2.15655 31.6683 1.74397 31.2557C1.33139 30.8432 1.09961 30.2836 1.09961 29.7001V3.3001C1.09961 2.71662 1.33139 2.15704 1.74397 1.74446C2.15655 1.33188 2.71613 1.1001 3.29961 1.1001Z" stroke="#DADADA" stroke-width="2"/>
</g>
<defs>
<clipPath id="clip0_79_217">
<rect width="33" height="33" fill="white"/>
</clipPath>
</defs>
</svg>
