<svg width="138" height="138" viewBox="0 0 138 138" fill="none" xmlns="http://www.w3.org/2000/svg">
<circle cx="69" cy="69" r="69" fill="#FBFBFF"/>
<g clip-path="url(#clip0_66_142)">
<path d="M95.5625 19H42.4375C29.4933 19 19 29.4933 19 42.4375V95.5625C19 108.507 29.4933 119 42.4375 119H95.5625C108.507 119 119 108.507 119 95.5625V42.4375C119 29.4933 108.507 19 95.5625 19Z" fill="#FBFBFF"/>
<mask id="mask0_66_142" style="mask-type:luminance" maskUnits="userSpaceOnUse" x="42" y="29" width="53" height="80">
<path d="M42.8281 29.9375H94.9219V108.062H42.8281V29.9375Z" fill="white"/>
</mask>
<g mask="url(#mask0_66_142)">
<path d="M55.8551 108.063C63.0426 108.063 68.8758 102.229 68.8758 95.0419V82.0208H55.8551C48.6676 82.0208 42.834 87.8544 42.834 95.0419C42.834 102.229 48.6676 108.063 55.8551 108.063Z" fill="#0ACF83"/>
<path d="M42.834 69C42.834 61.8125 48.6676 55.9792 55.8551 55.9792H68.8758V82.0207H55.8551C48.6676 82.0207 42.834 76.1875 42.834 69Z" fill="#A259FF"/>
<path d="M42.834 42.9582C42.834 35.7707 48.6676 29.9375 55.8551 29.9375H68.8758V55.9793H55.8551C48.6676 55.9793 42.834 50.1457 42.834 42.9582Z" fill="#F24E1E"/>
<path d="M68.875 29.9375H81.8957C89.0832 29.9375 94.9168 35.7707 94.9168 42.9582C94.9168 50.1457 89.0832 55.9793 81.8957 55.9793H68.875V29.9375Z" fill="#FF7262"/>
<path d="M94.9168 69C94.9168 76.1875 89.0832 82.0207 81.8957 82.0207C74.7082 82.0207 68.875 76.1875 68.875 69C68.875 61.8125 74.7082 55.9792 81.8957 55.9792C89.0832 55.9792 94.9168 61.8125 94.9168 69Z" fill="#1ABCFE"/>
</g>
</g>
<defs>
<clipPath id="clip0_66_142">
<rect width="100" height="100" fill="white" transform="translate(19 19)"/>
</clipPath>
</defs>
</svg>
