<svg width="138" height="138" viewBox="0 0 138 138" fill="none" xmlns="http://www.w3.org/2000/svg">
<circle cx="69" cy="69" r="69" fill="#001E36"/>
<path d="M36.7086 20.25H101.291C111.084 20.25 119 28.1664 119 37.9586V100.041C119 109.834 111.084 117.75 101.291 117.75H36.7086C26.9164 117.75 19 109.834 19 100.041V37.9586C19 28.1664 26.9164 20.25 36.7086 20.25Z" fill="#001E36"/>
<path d="M54.8336 45.0415C53.5836 45.0415 52.3336 45.0415 51.0422 45.0837C49.75 45.1251 48.5414 45.1251 47.4164 45.1673C46.2914 45.2087 45.25 45.2087 44.25 45.2501C43.2914 45.2915 42.625 45.2915 41.9164 45.2915C41.625 45.2915 41.5 45.4579 41.5 45.7501V88.6251C41.5 89.0001 41.6664 89.1673 42 89.1673H50.0836C50.375 89.1251 50.5836 88.8751 50.5414 88.5837V75.2087C51.3328 75.2087 51.9164 75.2087 52.3336 75.2501C52.75 75.2915 53.4164 75.2915 54.4164 75.2915C57.8336 75.2915 60.9586 74.9165 63.7914 73.8751C66.5 72.8751 68.8336 71.1251 70.5 68.7915C72.1667 66.4582 73 63.4998 73 59.9165C73 58.0415 72.6672 56.2501 72.0422 54.5001C71.3799 52.7172 70.3425 51.0973 69 49.7501C67.4155 48.2108 65.5082 47.0435 63.4164 46.3329C61.0828 45.4579 58.25 45.0415 54.8336 45.0415ZM55.7633 53.2485C57.2477 53.2767 58.693 53.536 60.0414 54.0829C61.25 54.5415 62.25 55.3751 62.9586 56.4579C63.6231 57.5786 63.9556 58.865 63.9172 60.1673C63.9172 62.0001 63.5 63.4173 62.625 64.4587C61.7078 65.5001 60.5414 66.2923 59.2086 66.6673C57.6664 67.1673 56.0414 67.4165 54.4164 67.4165H52.2078C51.7078 67.4165 51.1672 67.3751 50.5836 67.3337V53.3337C50.875 53.2915 51.4586 53.2501 52.2922 53.2923C53.0836 53.2501 54.0414 53.2501 55.125 53.2501C55.3385 53.2449 55.5513 53.2444 55.7633 53.2485ZM90.7086 55.3759C87.75 55.3759 85.2914 55.8337 83.3336 56.8337C81.5422 57.6673 80 59.0001 78.9586 60.6665C78.0422 62.2087 77.5414 63.9165 77.5414 65.7087C77.5058 67.1827 77.8351 68.6427 78.5 69.9587C79.2793 71.36 80.3613 72.5698 81.6672 73.5001C83.5001 74.7537 85.4891 75.7623 87.5836 76.5001C89.625 77.2915 91 77.9165 91.6672 78.4579C92.3336 79.0001 92.6672 79.5415 92.6672 80.1251C92.6672 80.8751 92.2086 81.5837 91.5422 81.8751C90.7922 82.2501 89.6672 82.4587 88.0836 82.4587C86.4172 82.4587 84.75 82.2501 83.1664 81.8337C81.3481 81.4276 79.6048 80.7388 78 79.7923C77.875 79.7087 77.75 79.6673 77.625 79.7509C77.5 79.8337 77.4586 80.0001 77.4586 80.1251V87.3751C77.4172 87.7087 77.625 88.0001 77.9172 88.1665C79.2684 88.7977 80.6976 89.2462 82.1672 89.5001C84.0422 89.8751 85.9164 90.0415 87.8328 90.0415C90.8328 90.0415 93.3336 89.5837 95.375 88.7087C97.25 87.9587 98.875 86.6673 100.041 85.0001C101.134 83.3611 101.701 81.4281 101.666 79.4587C101.708 77.971 101.378 76.4963 100.709 75.1673C99.9164 73.7501 98.7914 72.5837 97.4164 71.7087C95.4049 70.4455 93.2512 69.4243 91 68.6665C89.9947 68.2504 89.0076 67.7917 88.0414 67.2915C87.5 67.0001 87 66.6251 86.625 66.1665C86.375 65.8329 86.2086 65.4587 86.2086 65.0837C86.2086 64.7087 86.3336 64.2923 86.5414 63.9587C86.8336 63.5423 87.2914 63.2501 87.8328 63.1251C88.625 62.9173 89.5 62.7915 90.3328 62.8329C91.9164 62.8329 93.4578 63.0415 95 63.3751C96.4172 63.6665 97.75 64.1251 99 64.7923C99.1664 64.8751 99.375 64.8751 99.75 64.7923C99.8151 64.744 99.8679 64.6811 99.9042 64.6086C99.9404 64.5361 99.9591 64.4561 99.9586 64.3751V57.5837C99.9586 57.4165 99.9164 57.2501 99.875 57.0837C99.7914 56.9173 99.625 56.7501 99.4586 56.7087C98.3094 56.239 97.1052 55.9169 95.875 55.7501C94.1641 55.501 92.4375 55.3764 90.7086 55.3759Z" fill="#31A8FF"/>
</svg>
