<svg width="138" height="138" viewBox="0 0 138 138" fill="none" xmlns="http://www.w3.org/2000/svg">
<circle cx="69" cy="69" r="69" fill="#FBFBFF"/>
<path d="M40.8203 27.0733L69 24.1147L97.1797 27.0741L119 56.1226L69 113.885L19 56.1226L40.8203 27.0733Z" fill="#FDB300"/>
<path d="M39.2539 56.1226L69 113.885L19 56.1226H39.2539ZM98.7461 56.1226L69 113.885L119 56.1226H98.7461Z" fill="#EA6C00"/>
<path d="M39.2539 56.1226H98.7461L69 113.885L39.2539 56.1226Z" fill="#FDAD00"/>
<path d="M69 24.1147L40.8203 27.0733L39.2539 56.1226L69 24.1147ZM69 24.1147L97.1797 27.0733L98.7461 56.1226L69 24.1147Z" fill="#FDD231"/>
<path d="M119 56.1227L97.1797 27.0735L98.7461 56.1227H119Z" fill="#FDAD00"/>
<path d="M69 24.1147L39.2539 56.1226H98.7461L69 24.1147Z" fill="#FEEEB7"/>
<path d="M19 56.1227L40.8203 27.0735L39.2539 56.1227H19Z" fill="#FDAD00"/>
</svg>
