<svg width="138" height="138" viewBox="0 0 138 138" fill="none" xmlns="http://www.w3.org/2000/svg">
<circle cx="69" cy="69" r="69" fill="#470137"/>
<g clip-path="url(#clip0_66_149)">
<path d="M102.516 20H35.4842C26.2832 20 18.8242 27.4589 18.8242 36.66V101.183C18.8242 110.384 26.2832 117.843 35.4842 117.843H102.516C111.717 117.843 119.176 110.384 119.176 101.183V36.66C119.176 27.4589 111.717 20 102.516 20Z" fill="#470137"/>
<path d="M71.5779 45.7309L59.0562 66.3983L72.4528 88.3444C72.5391 88.4981 72.563 88.6784 72.5203 88.8493C72.4995 88.9222 72.4548 88.9403 72.3862 88.943L72.3102 88.9418L72.2177 88.9395C72.1675 88.9395 72.1114 88.9418 72.0491 88.952H62.3902L62.2005 88.9489C61.6799 88.9352 61.3048 88.8607 61.0762 88.4789C60.1825 86.7378 59.2848 84.9987 58.3832 83.2617C57.5767 81.7125 56.7482 80.1748 55.8979 78.6491L55.5224 77.9772C54.5054 76.1698 53.5068 74.3521 52.5267 72.5245H52.4593C51.5542 74.333 50.6228 76.1283 49.6655 77.9098C48.6999 79.7051 47.7461 81.4891 46.8043 83.2617C45.8617 85.0354 44.8968 86.7971 43.9098 88.5463C43.751 88.903 43.4872 88.9775 43.1199 88.9897L42.967 88.992H33.7444L33.7044 88.9932L33.5727 89.0049C33.4994 89.0093 33.4555 88.9936 33.4414 88.883C33.4163 88.7189 33.4523 88.5512 33.5425 88.4118L46.535 67.0714L33.8789 45.6642C33.7445 45.4855 33.7221 45.3397 33.8114 45.2268C33.8611 45.1693 33.9235 45.1241 33.9936 45.0948C34.0638 45.0656 34.1398 45.053 34.2156 45.0582H43.7075C43.9145 45.047 44.1214 45.0815 44.3135 45.1593C44.4742 45.2507 44.6126 45.3773 44.7173 45.5298C45.5251 47.3251 46.4227 49.1202 47.4103 50.9151C48.3901 52.6983 49.3887 54.4712 50.406 56.2333C51.4076 57.9682 52.3397 59.7424 53.1998 61.5516H53.2672C54.1487 59.7428 55.0576 57.9475 55.9935 56.1663C56.9129 54.4159 57.8553 52.6543 58.8207 50.8814C59.7735 49.1315 60.7048 47.37 61.6144 45.5972C61.6662 45.431 61.7587 45.2805 61.8837 45.1593C62.05 45.0751 62.2369 45.04 62.4224 45.0582H71.2412C71.3223 45.038 71.4077 45.0447 71.4847 45.0772C71.5616 45.1097 71.6259 45.1664 71.6679 45.2386C71.7099 45.3108 71.7273 45.3948 71.7175 45.4777C71.7077 45.5607 71.6713 45.6383 71.6136 45.6987L71.5779 45.7309ZM91.3621 89.8203L90.898 89.8254C87.7994 89.8727 84.7292 89.2289 81.9106 87.9407C79.285 86.7254 77.0901 84.7417 75.6163 82.252C74.1301 79.7837 73.3676 76.7084 73.329 73.0262L73.3274 72.7264C73.3021 69.6366 74.0917 66.5948 75.6167 63.9075C77.1428 61.2478 79.3677 59.0563 82.0502 57.5705L82.2811 57.445C85.1976 55.8292 88.7206 55.0213 92.8502 55.0213L93.0305 55.0232L93.2367 55.0299L93.468 55.0401L93.7251 55.055L94.1571 55.0856L94.6463 55.1248L95.0042 55.1561V41.894C95.0042 41.5801 95.1388 41.4231 95.408 41.4228H103.89C103.945 41.4149 104.001 41.42 104.054 41.4375C104.106 41.455 104.154 41.4845 104.193 41.5237C104.233 41.5629 104.262 41.6106 104.28 41.6632C104.297 41.7158 104.302 41.7717 104.294 41.8266V81.6126C104.294 82.2808 104.32 83 104.372 83.7702L104.497 85.5165L104.564 86.5267C104.572 86.6666 104.538 86.8058 104.466 86.9259C104.394 87.0461 104.287 87.1417 104.16 87.2002C101.971 88.1127 99.6922 88.7895 97.3605 89.2194C95.3811 89.5849 93.3748 89.7859 91.3621 89.8203ZM95.0042 81.4778V63.0996C94.6404 63.001 94.2689 62.9335 93.8937 62.8977C93.4351 62.8514 92.9744 62.8289 92.5135 62.8303C90.8799 62.8139 89.2654 63.1829 87.8012 63.9075C86.3752 64.6169 85.1575 65.6839 84.2669 67.0043C83.3781 68.3042 82.9186 70.0016 82.8883 72.0964L82.8867 72.3226C82.8541 73.79 83.0937 75.2507 83.5935 76.6307C84.0005 77.7428 84.6438 78.7534 85.479 79.593C86.2783 80.3654 87.2461 80.9415 88.3061 81.2759C89.4258 81.6383 90.5961 81.8202 91.773 81.8149C92.4009 81.8149 92.9844 81.7923 93.5232 81.7471C93.9531 81.7147 94.3792 81.6438 94.7965 81.5354L95.0042 81.4778Z" fill="#FF61F6"/>
</g>
<defs>
<clipPath id="clip0_66_149">
<rect width="100.352" height="98" fill="white" transform="translate(18.8242 20)"/>
</clipPath>
</defs>
</svg>
